# AST/ASF file generated using VICON BodyLanguage
# -----------------------------------------------
:version 1.10
:name VICON
:units
  mass 1.0
  length 0.45
  angle deg
:documentation
   .ast/.asf automatically generated from VICON data using
   VICON BodyBuilder and BodyLanguage model FoxedUp or BRILLIANT.MOD
:root
   order TX TY TZ RX RY RZ
   axis XYZ
   position 0 0 0  
   orientation 0 0 0 
:bonedata
  begin
     id 1 
     name lhipjoint
     direction 0.588788 -0.725889 0.355548 
     length 2.37778 
     axis 0 0 0  XYZ
  end
  begin
     id 2 
     name lfemur
     direction 0.34202 -0.939693 0  
     length 6.86393  
     axis 0 0 20  XYZ
    dof rx ry rz
    limits (-160.0 20.0)
           (-70.0 70.0)
           (-60.0 70.0)
  end
  begin
     id 3 
     name ltibia
     direction 0.34202 -0.939693 0   
     length 7.32851   
     axis 0 0 20   XYZ
    dof rx
    limits (-10.0 170.0)
  end
  begin
     id 4 
     name lfoot
     direction 0.0626533 -0.172138 0.983078   
     length 1.98929   
     axis -90 7.62852e-016 20   XYZ
    dof rx rz
    limits (-45.0 90.0)
           (-70.0 20.0)
  end
  begin
     id 5 
     name ltoes
     direction 1.53647e-011 -4.21734e-011 1   
     length 1.00479   
     axis -90 7.62852e-016 20   XYZ
    dof rx
    limits (-90.0 20.0)
  end
  begin
     id 6 
     name rhipjoint
     direction -0.59141 -0.724168 0.354705   
     length 2.38343  
     axis 0 0 0  XYZ 
  end
  begin
     id 7 
     name rfemur
     direction -0.34202 -0.939693 0   
     length 6.95589   
     axis 0 0 -20   XYZ
    dof rx ry rz
    limits (-160.0 20.0)
           (-70.0 70.0)
           (-70.0 60.0)
  end
  begin
     id 8 
     name rtibia
     direction -0.34202 -0.939693 0   
     length 7.32327   
     axis 0 0 -20   XYZ
    dof rx
    limits (-10.0 170.0)
 end
 begin
     id 9 
     name rfoot
     direction -0.0660461 -0.18146 0.981178   
     length 1.85272  
     axis -90 -7.62852e-016 -20   XYZ
    dof rx rz
    limits (-45.0 90.0)
           (-20.0 70.0)
  end
  begin
     id 10 
     name rtoes
     direction -1.53586e-011 -4.21988e-011 1   
     length 0.93746   
     axis -90 -7.62852e-016 -20   XYZ
    dof rx
    limits (-90.0 20.0)
  end
  begin
     id 11 
     name lowerback
     direction -0.0107982 0.991059 0.13299   
     length 1.98691   
     axis 0 0 0   XYZ
    dof rx ry rz
    limits (-20.0 45.0)
           (-30.0 30.0)
           (-30.0 30.0)
  end
  begin
     id 12 
     name upperback
     direction 0.0076296 0.999916 0.0104576   
     length 1.99501   
     axis 0 0 0   XYZ
    dof rx ry rz
    limits (-20.0 45.0)
           (-30.0 30.0)
           (-30.0 30.0)
  end
  begin
     id 13 
     name thorax
     direction 0.01176 0.998615 -0.0512909   
     length 2.03144   
     axis 0 0 0   XYZ
    dof rx ry rz
    limits (-20.0 45.0)
           (-30.0 30.0)
           (-30.0 30.0)
  end
  begin
     id 14 
     name lowerneck
     direction -0.0171909 0.999644 0.0204011   
     length 1.71818   
     axis 0 0 0   XYZ
    dof rx ry rz
    limits (-20.0 45.0)
           (-30.0 30.0)
           (-30.0 30.0)
  end
  begin
     id 15 
     name upperneck
     direction 0.0250902 0.997482 -0.0663316   
     length 1.66199   
     axis 0 0 0   XYZ
    dof rx ry rz
    limits (-20.0 45.0)
           (-30.0 30.0)
           (-30.0 30.0)
  end
  begin
     id 16
     name head
     direction 0.00881535 0.99956 -0.0283365  
     length 1.81545  
     axis 0 0 0   XYZ
    dof rx ry rz
    limits (-20.0 45.0)
           (-30.0 30.0)
           (-30.0 30.0)
  end
  begin
     id 17 
     name lclavicle
     direction 0.840411 0.486876 -0.238035  
     length 3.30409  
     axis 0 0 0   XYZ
    dof ry rz
    limits (-20.0 10.0)
           (0.0 20.0)
  end
  begin
     id 18 
     name lhumerus
     direction 1 -4.48977e-011 -5.16239e-027   
     length 4.62672   
     axis 180 -30 -90   XYZ
    dof rx ry rz
    limits (-60.0 90.0)
           (-90.0 90.0)
           (-90.0 90.0)
  end
  begin
     id 19
     name lradius
     direction 1 -4.48977e-011 -8.71171e-027   
     length 3.11018   
     axis 180 -30 -90   XYZ
    dof rx
    limits (-10.0 170.0)
  end
  begin
     id 20
     name lwrist
     direction 1 -4.48912e-011 -1.03764e-026   
     length 1.55509   
     axis 9.09556e-015 90 90   XYZ
    dof ry
    limits (-180.0 0.0)
 end
  begin
     id 21 
     name lhand
     direction 1 -4.49072e-011 -2.07528e-026   
     length 0.743834   
     axis 1.3242e-014 90 90   XYZ
    dof rx rz
    limits (-90.0 90.0)
           (-45.0 45.0)
  end
  begin
     id 22 
     name lfingers
     direction 1 -4.48909e-011 -4.15056e-026   
     length 0.599698   
     axis 2.64841e-014 90 90   XYZ
    dof rx
    limits (0.0 90.0)
  end
  begin
     id 23
     name lthumb
     direction 0.707107 -6.35013e-011 0.707107   
     length 0.86105   
     axis -90 45 2.85299e-015   XYZ
    dof rx rz
    limits (-45.0 45.0)
           (-45.0 45.0)
  end
  begin
     id 24 
     name rclavicle
     direction -0.835208 0.500237 -0.228452   
     length 3.2716  
     axis 0 0 0   XYZ 
    dof ry rz
    limits (-10.0 20.0)
           (-20.0 0.0)
  end
  begin
     id 25 
     name rhumerus
     direction -1 -4.48978e-011 -5.1953e-028  
     length 4.55919   
     axis 180 30 90   XYZ
    dof rx ry rz
    limits (-90.0 60.0)
           (-90.0 90.0)
           (-90.0 90.0)
  end
  begin
     id 26 
     name rradius
     direction -1 -4.48961e-011 -5.99546e-027   
     length 3.22748   
     axis 180 30 90   XYZ
    dof rx
    limits (-10.0 170.0)
  end
  begin
     id 27 
     name rwrist
     direction -1 -4.48986e-011 -1.03764e-026   
     length 1.61374   
     axis 9.09556e-015 -90 -90   XYZ
    dof ry
    limits (-180.0 0.0)
  end
  begin
     id 28
     name rhand
     direction -1 -4.4899e-011 -2.07528e-026   
     length 0.700882   
     axis 1.3242e-014 -90 -90   XYZ
    dof rx rz
    limits (-90.0 90.0)
           (-45.0 45.0)
  end
  begin
     id 29
     name rfingers
     direction -1 -4.48991e-011 -4.15056e-026   
     length 0.565069   
     axis 2.64841e-014 -90 -90   XYZ
    dof rx
    limits (0.0 90.0)
  end
  begin
     id 30
     name rthumb
     direction -0.707107 -6.34804e-011 0.707107   
     length 0.811329   
     axis -90 -45 -2.85299e-015   XYZ
    dof rx rz
    limits (-45.0 45.0)
           (-45.0 45.0)
  end
:hierarchy
  begin
    root lhipjoint rhipjoint lowerback
    lhipjoint lfemur
    lfemur ltibia
    ltibia lfoot
    lfoot ltoes
    rhipjoint rfemur
    rfemur rtibia
    rtibia rfoot
    rfoot rtoes
    lowerback upperback
    upperback thorax
    thorax lowerneck lclavicle rclavicle
    lowerneck upperneck
    upperneck head
    lclavicle lhumerus
    lhumerus lradius
    lradius lwrist
    lwrist lhand lthumb
    lhand lfingers
    rclavicle rhumerus
    rhumerus rradius
    rradius rwrist
    rwrist rhand rthumb
    rhand rfingers
  end

#!OML:ASF F:\VICON\USERDATA\INSTALL\SteveWalk\SteveWalk.ASF
:FULLY-SPECIFIED
:DEGREES
240
root 0.57348 16.4057 6.10591 17.2756 3.99515 -1.23097
lowerback -14.3569 -1.03205 3.10402
upperback -5.10661 -1.89697 3.07116
thorax 2.65766 -0.939534 1.1516
lowerneck -5.47589 1.42749 1.00074
upperneck 6.55087 2.14375 -4.20245
head 3.13642 0.934014 -1.45225
rclavicle -1.31695e-015 4.77083e-015
rhumerus -53.6051 -39.3494 -49.492
rradius 15.4214
rwrist 24.3264
rhand -15.1671 -35.7141
rfingers 7.12502
rthumb 11.0036 -65.4057
lclavicle -1.31695e-015 4.77083e-015
lhumerus -33.7399 0.161655 86.9451
lradius 37.5667
lwrist 7.73361
lhand -20.2706 -20.4876
lfingers 7.12502
lthumb 6.07853 9.40525
rfemur -40.6024 -0.831026 25.7305
rtibia 36.0806
rfoot -14.1776 4.28105
rtoes -6.32946
lfemur -28.8562 2.1488 -18.1693
ltibia 73.6016
lfoot 9.24877 -5.90364
ltoes -8.99603
241
root 0.580063 16.442 6.30425 17.4682 3.90546 -1.07696
lowerback -14.7181 -0.943767 2.96245
upperback -5.07873 -1.7776 3.00749
thorax 2.88349 -0.877134 1.17759
lowerneck -5.33559 1.39605 0.975077
upperneck 6.35824 2.10397 -4.30314
head 3.04414 0.913873 -1.48156
rclavicle 1.81639e-014 -3.18055e-015
rhumerus -50.7008 -37.9918 -53.1813
rradius 16.0886
rwrist 22.0277
rhand -15.1223 -36.6754
rfingers 7.12502
rthumb 11.0467 -66.3647
lclavicle 1.81639e-014 -3.18055e-015
lhumerus -33.8811 0.667077 87.1007
lradius 35.981
lwrist 6.56867
lhand -20.2784 -20.2499
lfingers 7.12502
lthumb 6.07102 9.64314
rfemur -39.8844 -1.10542 25.6387
rtibia 35.9765
rfoot -15.0112 4.66296
rtoes -5.11676
lfemur -30.8002 2.14578 -18.553
ltibia 74.616
lfoot 9.26426 -5.15808
ltoes -3.8213
242
root 0.578829 16.4691 6.4966 17.4658 3.79436 -0.935636
lowerback -14.6498 -0.865703 2.74823
upperback -5.17779 -1.63365 2.92802
thorax 2.74667 -0.80663 1.24099
lowerneck -5.53843 1.32722 0.756254
upperneck 6.88579 2.03785 -4.14087
head 3.25508 0.872704 -1.39533
rclavicle 2.28602e-014 -2.3059e-014
rhumerus -48.1503 -35.927 -56.8302
rradius 16.7884
rwrist 19.2198
rhand -15.4411 -36.5247
rfingers 7.12502
rthumb 10.7393 -66.2301
lclavicle 2.28602e-014 -2.3059e-014
lhumerus -34.4382 1.3696 87.0983
lradius 34.529
lwrist 5.26694
lhand -20.1298 -20.3243
lfingers 7.12502
lthumb 6.21452 9.56454
rfemur -38.9376 -1.16482 25.5244
rtibia 35.7854
rfoot -15.7644 4.54842
rtoes -5.70978
lfemur -32.2812 2.17682 -18.8371
ltibia 75.3332
lfoot 7.87498 -4.22541
ltoes -5.38138
243
root 0.571383 16.492 6.68638 17.381 3.58231 -0.883786
lowerback -14.5342 -0.798408 2.49166
upperback -5.24898 -1.50007 2.89756
thorax 2.61568 -0.740266 1.37795
lowerneck -5.42085 1.28026 0.536823
upperneck 7.22759 1.98844 -3.92946
head 3.34152 0.847453 -1.29089
rclavicle 8.82107e-016 -2.38542e-015
rhumerus -45.6859 -33.5861 -60.4399
rradius 17.7097
rwrist 16.2549
rhand -15.7411 -36.1135
rfingers 7.12502
rthumb 10.4499 -65.8338
lclavicle 8.82107e-016 -2.38542e-015
lhumerus -34.9754 1.93804 87.0942
lradius 33.098
lwrist 4.33843
lhand -19.8662 -19.9207
lfingers 7.12502
lthumb 6.46896 9.96054
rfemur -37.9109 -0.906459 25.426
rtibia 35.5139
rfoot -16.2289 4.39651
rtoes -5.64028
lfemur -33.6063 2.3403 -18.9811
ltibia 75.809
lfoot 6.50643 -3.17163
ltoes -3.72787
244
root 0.570907 16.5091 6.87421 17.2244 3.46861 -0.985995
lowerback -14.5444 -0.661431 2.57022
upperback -5.17854 -1.33093 2.83445
thorax 2.69048 -0.656227 1.29472
lowerneck -5.06563 1.19992 0.461951
upperneck 7.1781 1.8736 -3.81517
head 3.24984 0.797218 -1.24503
rclavicle 1.80149e-014 -2.78299e-014
rhumerus -43.3552 -31.5241 -63.6922
rradius 18.6962
rwrist 13.382
rhand -16.0803 -35.9838
rfingers 7.12502
rthumb 10.1227 -65.7203
lclavicle 1.80149e-014 -2.78299e-014
lhumerus -35.1059 2.49482 87.0196
lradius 31.245
lwrist 3.5139
lhand -19.356 -19.7393
lfingers 7.12502
lthumb 6.96148 10.1263
rfemur -36.8317 -0.788407 25.5087
rtibia 35.2327
rfoot -16.784 4.42993
rtoes -5.47471
lfemur -35.0088 2.55267 -18.9879
ltibia 76.155
lfoot 5.64272 -1.99901
ltoes -0.13605
